<svg width="180" height="48" viewBox="0 0 180 48" fill="none" xmlns="http://www.w3.org/2000/svg">
  <rect x="1" y="1" width="178" height="46" rx="14" fill="#111318" stroke="#D4A843" stroke-width="2"/>
  <path d="M24 13H32V28C32 32.4183 35.5817 36 40 36C44.4183 36 48 32.4183 48 28V13H56V28C56 36.8366 48.8366 44 40 44C31.1634 44 24 36.8366 24 28V13Z" fill="#F2C96B"/>
  <path d="M70 13H90C97.1797 13 103 18.8203 103 26C103 33.1797 97.1797 39 90 39H70V13ZM78 21V31H89.5C92.5376 31 95 28.5376 95 25.5C95 22.4624 92.5376 20 89.5 20H78V21Z" fill="#D4A843"/>
  <path d="M111 13H124L131 24L138 13H151L137.5 32.2V39H129.5V32.2L111 13Z" fill="#1ECFB0"/>
</svg>

